<svg width="200" height="183" viewBox="0 0 200 183" fill="none" xmlns="http://www.w3.org/2000/svg">
<path d="M26 26.6667V0.666672H43.3333V26.6667H69.3333V44H43.3333V70H26V44H0V26.6667H26ZM52 78.6667V52.6667H78V26.6667H138.667L154.527 44H182C191.533 44 199.333 51.8 199.333 61.3333V165.333C199.333 174.867 191.533 182.667 182 182.667H43.3333C33.8 182.667 26 174.867 26 165.333V78.6667H52ZM112.667 156.667C136.587 156.667 156 137.253 156 113.333C156 89.4133 136.587 70 112.667 70C88.7467 70 69.3333 89.4133 69.3333 113.333C69.3333 137.253 88.7467 156.667 112.667 156.667ZM84.9333 113.333C84.9333 128.673 97.3267 141.067 112.667 141.067C128.007 141.067 140.4 128.673 140.4 113.333C140.4 97.9933 128.007 85.6 112.667 85.6C97.3267 85.6 84.9333 97.9933 84.9333 113.333Z" fill="black"/>
</svg>
